<?xml version="1.0" ?><!DOCTYPE svg  PUBLIC '-//W3C//DTD SVG 1.1//EN'  'http://www.w3.org/Graphics/SVG/1.1/DTD/svg11.dtd'><svg enable-background="new 0 0 128 128" id="Слой_1" version="1.1" viewBox="0 0 128 128" xml:space="preserve" xmlns="http://www.w3.org/2000/svg" xmlns:xlink="http://www.w3.org/1999/xlink"><g><path d="M121,24h-14v8H2v54h0.9c-0.2,1.2-0.4,2.5-0.4,3.8c0,4.9,1.7,9.4,4.5,13V126h21.1v0h4v0H57h20h24h20V86h5V32   h-5V24z M111,28h6v4h-6V28z M19.5,71.6c0-0.3,0-0.6,0-0.9c0-7,5.7-12.7,12.7-12.7s12.7,5.7,12.7,12.7c0,2.1-0.5,4.1-1.5,6l-1.1,2   l2.1,0.8c5.5,2.1,9.2,7.4,9.2,13.3c0,7.8-6.4,14.2-14.2,14.2h-7.4v-4l10.7-5.3L41,94l-8.9,4.4V76.6h-4v10.1l-8.9-4.4l-1.8,3.6   l10.7,5.3v15.8h-4.5c-9.4,0-17.1-7.7-17.1-17.1c0-7.3,4.7-13.9,11.6-16.2l1.5-0.5L19.5,71.6z M57,87.9c-0.2-0.6-0.4-1.3-0.7-1.9H57   V87.9z M11,122v-15.3c3.5,2.6,7.9,4.2,12.6,4.2h4.5V122H11z M32.1,122v-11.1h7.4c8.3,0,15.4-5.7,17.5-13.3V122H32.1z M81,122V96h16   v26H81z M101,122V92H77v30H61V84.8l28-28.5l28,28.5V122H101z M122,36v46h-2.2L89,50.6L58.2,82h-4c-1.6-2.2-3.8-4.1-6.3-5.4   c0.7-1.9,1.1-3.9,1.1-5.9c0-9.2-7.5-16.7-16.7-16.7c-9.1,0-16.5,7.3-16.7,16.4C11.5,72,8.3,74.8,6,78.2V36h101h14H122z" fill="#FF7F00"/></g></svg>