<?xml version="1.0" ?><!DOCTYPE svg  PUBLIC '-//W3C//DTD SVG 1.1//EN'  'http://www.w3.org/Graphics/SVG/1.1/DTD/svg11.dtd'><svg height="8.26772in" style="shape-rendering:geometricPrecision; text-rendering:geometricPrecision; image-rendering:optimizeQuality; fill-rule:evenodd; clip-rule:evenodd" version="1.1" viewBox="0 0 826772 826772" width="8.26772in" xml:space="preserve" xmlns="http://www.w3.org/2000/svg" xmlns:xlink="http://www.w3.org/1999/xlink"><defs><style type="text/css">
   <![CDATA[
    .fil0 {fill:#9E0420}/*#DD4B39*/
    .fil1 {fill:#2E373C;fill-rule:nonzero}
    .fil2 {fill:white;fill-rule:nonzero}
   ]]>
  </style></defs><g id="Layer_x0020_1"><polygon class="fil0" points="0,0 826772,0 826772,826772 0,826772 "/><path class="fil1" d="M328389 649609l172065 0c82380,0 149310,-67120 149765,-149025l898 -120598 -1353 -6584 -4017 -8204 -6629 -5198c-8710,-6802 -52774,427 -64617,-10300 -8425,-7716 -9731,-21621 -12250,-40376 -4726,-36505 -7750,-38380 -13435,-50694 -20771,-43906 -77055,-76884 -115701,-81467l-104726 0c-82378,0 -149717,67245 -149717,149293l0 174128c0,81905 67339,149025 149717,149025zm1905 -350460l0 0 83025 0c15842,0 28678,12820 28678,28490 0,15589 -12850,28534 -28678,28534l-83025 0c-15843,0 -28676,-12945 -28676,-28534 0,-15654 12833,-28490 28676,-28490zm0 170836l0 0 168696 0c15779,0 28536,12772 28536,28426 0,15435 -12757,28427 -28536,28427l-168696 0c-15843,0 -28676,-12978 -28676,-28427 0,-15668 12833,-28426 28676,-28426z"/><path class="fil2" d="M311945 649609l172066 0c82379,0 149309,-67120 149764,-149025l898 -120598 -1353 -6584 -4017 -8204 -6629 -5198c-8709,-6802 -52774,427 -64617,-10300 -8425,-7716 -9731,-21621 -12250,-40376 -4726,-36505 -7750,-38380 -13435,-50694 -20770,-43906 -77055,-76884 -115702,-81467l-104725 0c-82378,0 -149717,67245 -149717,149293l0 174128c0,81905 67339,149025 149717,149025zm1905 -350460l0 0 83024 0c15844,0 28679,12820 28679,28490 0,15589 -12850,28534 -28679,28534l-83024 0c-15843,0 -28676,-12945 -28676,-28534 0,-15654 12833,-28490 28676,-28490zm0 170836l0 0 168696 0c15779,0 28536,12772 28536,28426 0,15435 -12757,28427 -28536,28427l-168696 0c-15843,0 -28676,-12978 -28676,-28427 0,-15668 12833,-28426 28676,-28426z"/></g></svg>
