<?xml version="1.0" standalone="no"?>
<!DOCTYPE svg PUBLIC "-//W3C//DTD SVG 20010904//EN"
 "http://www.w3.org/TR/2001/REC-SVG-20010904/DTD/svg10.dtd">
<svg version="1.0" xmlns="http://www.w3.org/2000/svg"
 width="1742.000000pt" height="1759.000000pt" viewBox="0 0 1742.000000 1759.000000"
 preserveAspectRatio="xMidYMid meet">
<metadata>
Created by potrace 1.15, written by Peter Selinger 2001-2017
</metadata>
<g transform="translate(0.000000,1759.000000) scale(0.100000,-0.100000)"
fill="#000000" stroke="none">
<path d="M3380 17514 c-30 -2 -102 -8 -160 -14 -58 -6 -132 -13 -165 -16 -33
-3 -63 -8 -67 -10 -3 -2 -28 -7 -55 -10 -26 -3 -56 -7 -65 -10 -26 -8 -60 -15
-98 -21 -19 -3 -40 -9 -46 -14 -6 -5 -13 -7 -16 -4 -4 5 -160 -36 -198 -52 -8
-3 -24 -8 -34 -10 -11 -2 -25 -8 -31 -13 -7 -5 -14 -7 -18 -4 -3 3 -16 0 -29
-7 -12 -7 -25 -13 -28 -14 -21 -1 -120 -41 -120 -48 0 -4 -4 -6 -8 -3 -5 3
-32 -6 -60 -19 -29 -13 -52 -21 -52 -17 0 4 -4 2 -8 -5 -4 -6 -68 -42 -142
-80 -239 -122 -461 -270 -685 -458 -123 -103 -445 -419 -445 -436 0 -6 -11
-20 -25 -31 -14 -11 -25 -23 -25 -27 0 -4 -17 -26 -38 -49 -21 -22 -47 -56
-57 -75 -11 -19 -63 -99 -116 -178 -301 -450 -480 -952 -551 -1544 -20 -169
-17 -730 6 -915 83 -684 262 -1325 528 -1880 76 -160 197 -380 209 -380 5 0
683 674 1509 1498 825 824 1500 1497 1500 1495 0 -2 15 14 34 34 19 21 596
601 1283 1289 686 688 1254 1258 1261 1266 11 14 6 20 -45 45 -32 16 -110 57
-175 91 -561 300 -1338 531 -2048 607 -137 15 -600 27 -720 19z"/>
<path d="M13550 17514 c-352 -25 -678 -79 -1025 -169 -449 -117 -790 -244
-1207 -451 -138 -68 -256 -125 -262 -127 -6 -2 370 -386 836 -852 466 -466
845 -852 841 -858 -3 -5 -2 -7 4 -4 5 3 886 -869 1958 -1939 1406 -1404 1950
-1942 1957 -1932 37 58 139 249 196 368 265 555 445 1196 528 1880 23 185 26
746 6 915 -57 476 -177 872 -383 1262 -337 643 -912 1208 -1565 1539 -373 189
-735 296 -1179 349 -124 15 -585 27 -705 19z"/>
<path d="M8407 16919 c-338 -36 -659 -135 -959 -296 -55 -29 -104 -53 -109
-53 -5 0 -9 -4 -9 -10 0 -5 -7 -10 -15 -10 -8 0 -15 -5 -15 -12 0 -6 -3 -8 -6
-5 -8 8 -154 -92 -154 -104 0 -5 -4 -8 -8 -6 -9 2 -79 -51 -117 -90 -12 -13
-27 -23 -32 -23 -5 0 -26 -17 -45 -37 -19 -21 -76 -78 -127 -128 -145 -142
-261 -271 -261 -291 0 -5 -9 -15 -20 -22 -12 -7 -18 -17 -15 -22 3 -6 2 -10
-4 -10 -11 0 -115 -140 -104 -140 5 0 0 -5 -9 -11 -10 -5 -18 -17 -18 -24 0
-8 -4 -15 -10 -15 -5 0 -10 -6 -10 -14 0 -8 -4 -16 -9 -18 -12 -4 -123 -178
-114 -178 5 0 3 -4 -3 -8 -15 -10 -75 -112 -66 -112 4 0 2 -4 -4 -8 -15 -10
-77 -122 -67 -122 4 0 3 -4 -3 -8 -15 -9 -86 -152 -77 -152 5 0 3 -4 -4 -8
-16 -10 -64 -118 -56 -126 4 -3 1 -6 -6 -6 -7 0 -9 -4 -6 -10 3 -5 2 -10 -3
-10 -6 0 -13 -12 -16 -27 -10 -42 -67 -186 -78 -200 -6 -7 -7 -13 -3 -13 4 0
3 -6 -2 -12 -9 -12 -41 -99 -47 -131 -2 -7 -8 -24 -14 -39 -6 -15 -13 -38 -14
-50 -2 -13 -7 -29 -11 -35 -5 -7 -6 -17 -2 -22 3 -5 1 -12 -5 -16 -5 -3 -10
-9 -10 -13 0 -4 1336 -8 2970 -7 2635 0 2969 2 2966 15 -3 8 -17 60 -31 115
-39 144 -153 455 -175 475 -3 3 -6 12 -8 20 -7 32 -55 130 -64 130 -5 0 -7 4
-3 9 3 5 -1 16 -9 24 -8 8 -12 17 -9 21 4 3 1 6 -6 6 -7 0 -9 5 -6 10 3 6 1
10 -6 10 -7 0 -9 3 -6 7 6 5 -27 69 -42 83 -4 3 -7 12 -9 20 -5 21 -92 163
-106 172 -6 4 -7 8 -3 8 9 0 -52 93 -65 98 -4 2 -6 7 -3 12 2 4 -6 19 -19 33
-13 14 -21 28 -19 31 3 3 -2 8 -11 12 -9 3 -16 11 -16 16 0 16 -140 208 -151
208 -6 0 -7 4 -4 10 3 5 -3 15 -15 22 -11 7 -20 17 -20 22 0 9 -125 159 -157
188 -10 9 -26 27 -35 41 -14 20 -138 136 -263 246 -67 58 -123 100 -129 94 -3
-3 -6 -2 -6 4 0 6 -34 34 -75 62 -41 29 -75 49 -75 46 0 -4 -7 1 -16 9 -21 22
-155 99 -171 99 -7 0 -13 4 -13 9 0 5 -4 6 -10 3 -5 -3 -10 -1 -10 5 0 6 -4 8
-10 5 -5 -3 -10 -2 -10 4 0 9 -26 21 -44 20 -5 0 -12 3 -15 8 -6 8 -103 53
-126 58 -5 1 -21 6 -35 12 -137 58 -456 131 -670 153 -112 11 -481 11 -593 -1z"/>
<path fill="#FF7F00" d="M8810 12200 c-128 -34 -215 -84 -306 -174 -92 -93 -141 -180 -174
-310 -36 -144 -21 -418 27 -494 8 -13 16 -33 18 -44 8 -39 59 -114 121 -175
75 -74 194 -136 302 -158 83 -18 330 -14 422 6 95 20 139 46 110 64 -5 3 -10
19 -10 34 0 15 -5 41 -10 58 l-11 30 -52 -18 c-163 -55 -351 -48 -484 17 -164
80 -263 262 -263 484 0 381 284 611 658 534 42 -9 89 -22 105 -31 16 -8 30
-13 32 -11 4 4 45 143 45 151 0 3 -30 16 -67 28 -101 32 -357 37 -463 9z"/>
<path fill="#FF7F00" d="M5630 11525 l0 -675 380 0 380 0 0 75 0 75 -290 0 -290 0 0 600 0
600 -90 0 -90 0 0 -675z"/>
<path fill="#FF7F00" d="M10735 11839 c-85 -8 -158 -43 -208 -99 -50 -56 -67 -103 -67 -189 0
-119 72 -200 242 -272 68 -28 116 -55 141 -80 33 -32 37 -42 37 -85 0 -62 -25
-105 -75 -128 -57 -27 -180 -19 -262 18 -34 16 -66 25 -71 22 -12 -7 -45 -124
-37 -135 3 -6 31 -20 63 -32 50 -20 75 -23 197 -24 134 0 143 1 203 29 117 54
167 138 161 274 -3 66 -9 86 -34 127 -36 58 -105 106 -230 160 -148 65 -188
119 -150 200 37 76 154 98 270 50 33 -14 63 -25 67 -25 6 0 48 115 48 131 0 3
-22 16 -49 27 -59 26 -165 39 -246 31z"/>
<path fill="#FF7F00" d="M6720 11824 c-30 -8 -78 -26 -107 -39 l-52 -24 21 -63 c11 -35 22
-64 23 -66 1 -2 18 6 36 17 90 52 256 68 335 32 61 -28 104 -101 104 -177 l0
-34 -77 0 c-104 0 -245 -30 -320 -69 -126 -63 -183 -152 -183 -286 1 -122 47
-206 145 -258 34 -19 56 -22 155 -22 106 0 119 2 170 28 30 16 71 44 91 63
l36 36 7 -56 7 -56 86 0 85 0 -7 51 c-4 29 -10 196 -14 373 l-7 321 -28 63
c-33 70 -86 124 -155 155 -61 28 -267 35 -351 11z m368 -548 c6 -143 -35 -233
-130 -280 -67 -33 -157 -36 -206 -6 -45 28 -76 98 -69 157 7 69 46 117 124
154 83 40 118 48 208 46 l70 -2 3 -69z"/>
<path fill="#FF7F00" d="M9670 11824 c-30 -8 -78 -26 -107 -39 l-52 -24 21 -63 c11 -35 22
-64 23 -66 1 -2 18 6 36 17 90 52 256 68 335 32 61 -28 104 -101 104 -177 l0
-34 -77 0 c-104 0 -245 -30 -320 -69 -126 -63 -183 -152 -183 -286 1 -122 47
-206 145 -258 34 -19 56 -22 155 -22 106 0 119 2 170 28 30 16 72 44 92 64
l37 36 6 -39 c3 -22 7 -46 8 -54 2 -12 21 -16 86 -18 l83 -3 -7 52 c-4 28 -10
196 -14 373 l-7 321 -28 63 c-33 70 -86 124 -155 155 -61 28 -267 35 -351 11z
m370 -557 c0 -143 -40 -225 -133 -272 -66 -32 -156 -35 -205 -5 -44 27 -76 98
-69 156 13 121 134 191 335 193 l72 1 0 -73z"/>
<path fill="#FF7F00" d="M11430 11824 c-30 -8 -78 -26 -107 -39 l-52 -24 21 -63 c11 -35 22
-64 23 -66 1 -2 18 6 36 17 90 52 256 68 335 32 61 -28 104 -101 104 -177 l0
-34 -77 0 c-104 0 -245 -30 -320 -69 -126 -63 -183 -152 -183 -286 1 -122 47
-206 145 -258 34 -19 56 -22 156 -22 l115 0 91 61 91 61 7 -54 6 -53 86 0 85
0 -7 51 c-4 29 -10 196 -14 373 l-7 321 -28 63 c-33 70 -86 124 -155 155 -61
28 -267 35 -351 11z m370 -557 c0 -143 -40 -225 -133 -272 -66 -32 -156 -35
-205 -5 -44 27 -76 98 -69 156 13 121 134 191 335 193 l72 1 0 -73z"/>
<path d="M14165 8824 c0 -2121 3 -2964 11 -2964 6 0 14 3 17 7 4 3 19 8 33 9
15 2 34 6 43 10 9 4 25 9 36 11 36 6 181 52 221 70 21 9 48 18 59 20 10 2 23
9 27 16 4 6 8 9 8 5 0 -10 83 22 91 35 3 5 9 8 13 8 17 -3 56 12 56 22 0 6 3
8 6 5 7 -7 176 70 185 84 3 5 8 9 10 7 7 -4 94 43 101 55 4 6 8 8 8 4 0 -18
420 246 420 264 0 5 5 6 10 3 6 -3 13 1 16 9 3 9 12 16 19 16 6 0 24 11 39 25
15 14 29 25 32 25 10 0 114 83 114 91 0 5 6 9 14 9 8 0 21 9 29 20 8 11 16 18
19 15 3 -3 21 12 41 34 19 22 37 37 40 35 2 -2 37 32 78 76 40 44 79 80 86 80
7 0 19 11 28 24 8 13 49 58 90 101 42 43 73 80 71 82 -2 3 2 12 10 21 146 168
348 528 432 772 164 476 191 1045 72 1554 -80 346 -275 738 -499 1006 -77 93
-268 304 -293 324 -12 11 -53 46 -89 78 -37 32 -72 58 -78 58 -6 0 -11 4 -11
9 0 8 -104 91 -114 91 -3 0 -17 11 -32 25 -15 14 -31 25 -35 25 -4 0 -21 12
-36 26 -28 26 -227 127 -250 127 -7 0 -13 3 -13 7 0 8 -112 55 -122 52 -5 -1
-8 2 -8 7 0 4 -28 18 -62 31 -35 12 -100 42 -145 67 -46 24 -83 40 -83 36 0
-4 -4 -3 -8 2 -8 12 -113 61 -120 57 -3 -2 -8 0 -11 5 -8 13 -141 74 -141 65
0 -4 -4 -2 -8 3 -8 12 -83 46 -96 45 -5 -1 -12 3 -15 8 -8 12 -161 83 -161 74
0 -4 -4 -2 -8 3 -6 10 -108 60 -121 60 -3 0 -11 3 -16 7 -7 4 -11 -924 -10
-2958z"/>
<path d="M3205 11768 c-22 -6 -47 -13 -55 -16 -8 -3 -18 -5 -22 -4 -10 2 -267
-86 -292 -100 -12 -7 -29 -13 -39 -15 -10 -2 -37 -13 -60 -25 -23 -12 -45 -21
-49 -20 -5 1 -8 -2 -8 -8 0 -6 -3 -9 -7 -8 -15 4 -83 -24 -83 -33 0 -6 -4 -7
-10 -4 -5 3 -10 1 -10 -6 0 -7 -3 -10 -6 -6 -11 11 -370 -180 -385 -204 -3 -6
-10 -10 -15 -10 -13 2 -144 -82 -144 -92 0 -4 -4 -6 -9 -3 -4 3 -23 -8 -41
-24 -19 -17 -37 -30 -41 -30 -12 0 -129 -83 -129 -92 0 -4 -5 -8 -11 -8 -14 0
-163 -116 -227 -176 -25 -24 -49 -44 -53 -44 -9 0 -274 -288 -331 -360 -232
-292 -394 -616 -482 -965 -126 -498 -108 -1065 49 -1540 46 -138 168 -425 186
-436 6 -3 10 -10 10 -15 -2 -12 108 -190 135 -219 12 -13 20 -25 18 -28 -2 -2
11 -20 30 -40 18 -20 32 -38 30 -40 -2 -2 33 -43 78 -92 46 -48 90 -99 99
-114 18 -30 235 -236 248 -236 4 0 21 -15 36 -33 15 -18 30 -30 33 -27 3 2 11
-4 19 -15 8 -11 18 -20 23 -20 4 0 22 -14 40 -30 34 -31 184 -140 194 -140 3
0 17 -11 32 -25 14 -13 30 -22 34 -20 4 3 11 -2 14 -11 4 -9 9 -14 12 -11 4 3
15 -3 27 -14 11 -10 27 -19 34 -19 7 0 13 -4 13 -8 0 -8 67 -50 83 -51 4 -1
16 -10 27 -21 12 -12 25 -18 30 -15 4 3 10 1 12 -5 6 -19 388 -219 388 -204 0
3 7 -2 16 -10 13 -14 28 -18 50 -15 4 0 10 -4 13 -9 7 -12 111 -55 111 -46 0
4 6 1 13 -5 20 -16 207 -82 217 -76 5 3 11 1 15 -5 4 -6 10 -8 15 -5 5 3 11 1
15 -5 3 -5 17 -10 31 -10 13 0 50 -9 81 -20 40 -14 59 -17 64 -9 4 8 14 1808
10 1914 -5 119 -1 3876 3 3884 4 6 2 11 -3 11 -6 0 -11 21 -11 50 0 54 1 54
-65 38z"/>
<path fill="#FF7F00" d="M8290 9594 l0 -276 -46 41 c-72 63 -139 84 -259 79 -86 -3 -109 -7
-160 -32 -113 -55 -204 -173 -240 -312 -20 -78 -20 -258 1 -338 34 -131 113
-234 225 -292 70 -36 218 -46 297 -20 71 24 136 69 172 117 l30 42 0 -61 c0
-92 0 -92 93 -92 l80 0 -6 173 c-4 94 -7 414 -7 710 l0 537 -90 0 -90 0 0
-276z m-156 -318 c50 -21 95 -65 124 -120 24 -47 27 -62 30 -193 5 -169 -8
-226 -65 -292 -93 -109 -252 -122 -358 -29 -187 165 -128 572 94 643 50 16
125 12 175 -9z"/>
<path fill="#FF7F00" d="M9760 9160 l0 -710 90 0 90 0 0 710 0 710 -90 0 -90 0 0 -710z"/>
<path fill="#FF7F00" d="M9013 9426 c-147 -48 -268 -189 -302 -354 -15 -73 -14 -246 3 -307
32 -120 101 -218 194 -272 128 -75 348 -86 540 -27 28 9 52 19 52 23 -1 15
-29 123 -33 127 -3 3 -33 -5 -68 -17 -92 -32 -274 -33 -340 -3 -98 46 -157
125 -178 239 -6 32 -11 60 -11 62 0 2 153 3 340 3 l340 0 0 93 c0 197 -78 346
-219 414 -49 25 -69 28 -166 30 -72 2 -125 -2 -152 -11z m198 -127 c84 -26
144 -106 158 -214 l8 -55 -249 0 c-284 0 -266 -8 -227 96 52 139 181 211 310
173z"/>
<path fill="#FF7F00" d="M5500 6725 l0 -675 90 0 90 0 0 315 0 315 325 0 325 0 0 -315 0 -315
90 0 90 0 0 675 0 675 -90 0 -90 0 0 -280 0 -280 -325 0 -325 0 0 280 0 280
-90 0 -90 0 0 -675z"/>
<path fill="#FF7F00" d="M6819 7371 c-25 -25 -29 -37 -29 -81 0 -44 4 -56 29 -81 25 -25 37
-29 81 -29 44 0 56 4 81 29 25 25 29 37 29 81 0 44 -4 56 -29 81 -25 25 -37
29 -81 29 -44 0 -56 -4 -81 -29z"/>
<path fill="#FF7F00" d="M7525 7039 c-85 -8 -158 -43 -208 -99 -50 -56 -67 -103 -67 -189 0
-119 72 -200 242 -272 68 -28 116 -55 141 -80 33 -32 37 -42 37 -85 0 -62 -25
-105 -75 -128 -57 -27 -180 -19 -262 18 -34 16 -66 25 -71 22 -12 -7 -45 -124
-37 -135 3 -6 31 -20 63 -32 50 -20 75 -23 197 -24 134 0 143 1 203 29 117 54
167 138 161 274 -3 66 -9 86 -34 127 -36 58 -105 106 -230 160 -148 65 -188
119 -150 200 37 76 154 98 270 50 33 -14 63 -25 67 -25 6 0 48 115 48 131 0 3
-22 16 -49 27 -59 26 -165 39 -246 31z"/>
<path fill="#FF7F00" d="M11630 7038 c-196 -20 -347 -154 -395 -349 -24 -98 -17 -291 13 -369
52 -130 156 -232 279 -270 90 -28 231 -28 315 1 161 54 274 182 309 348 18 86
7 284 -19 350 -48 122 -107 182 -248 255 -61 31 -158 44 -254 34z m174 -162
c14 -9 26 -13 26 -9 0 12 70 -60 90 -92 50 -81 65 -280 29 -387 -47 -141 -140
-218 -262 -218 -225 1 -355 306 -240 563 29 65 101 137 155 155 47 16 171 9
202 -12z"/>
<path fill="#FF7F00" d="M8435 7023 c-64 -23 -137 -74 -167 -115 l-23 -33 -6 30 c-4 17 -7 49
-8 73 l-1 42 -86 0 -87 0 7 -52 c3 -29 6 -338 6 -685 l0 -633 90 0 90 0 0 260
0 260 36 -40 c20 -22 61 -52 92 -67 53 -26 66 -28 177 -28 115 0 123 1 187 33
113 55 196 165 233 307 20 77 20 262 0 338 -33 129 -121 244 -224 294 -48 24
-70 28 -161 31 -81 2 -116 -2 -155 -15z m202 -154 c158 -76 221 -335 130 -533
-95 -207 -377 -216 -480 -16 -50 99 -48 320 4 421 26 52 83 107 133 130 58 26
157 25 213 -2z"/>
<path fill="#FF7F00" d="M9360 7024 c-30 -8 -78 -26 -107 -39 l-52 -24 21 -63 c11 -35 22 -64
23 -66 1 -2 18 6 36 17 90 52 256 68 335 32 61 -28 104 -101 104 -177 l0 -34
-77 0 c-104 0 -245 -30 -320 -69 -126 -63 -183 -152 -183 -286 1 -122 47 -206
145 -258 34 -19 56 -22 155 -22 106 0 119 2 170 28 30 16 71 44 91 63 l36 36
7 -56 7 -56 86 0 85 0 -7 51 c-4 29 -10 196 -14 373 l-7 321 -28 63 c-33 70
-86 124 -155 155 -61 28 -267 35 -351 11z m370 -557 c0 -143 -40 -225 -133
-272 -66 -32 -156 -35 -205 -5 -44 27 -76 98 -69 156 13 121 134 191 335 193
l72 1 0 -73z"/>
<path fill="#FF7F00" d="M10523 7022 c-63 -23 -127 -66 -154 -104 -11 -15 -25 -26 -30 -23 -5
4 -9 33 -9 66 l0 59 -86 0 -87 0 7 -37 c3 -21 6 -239 6 -485 l0 -448 89 0 89
0 4 318 c3 306 4 319 26 367 28 60 64 100 114 126 116 60 248 16 302 -101 20
-42 21 -65 24 -377 l3 -333 90 0 89 0 0 343 c0 359 -4 398 -48 482 -26 51 -84
106 -142 136 -63 32 -212 38 -287 11z"/>
<path fill="#FF7F00" d="M6810 6535 l0 -485 90 0 90 0 0 485 0 485 -90 0 -90 0 0 -485z"/>
<path d="M711 6482 c-44 -49 -52 -83 -42 -176 1 -6 8 -1 16 10 13 16 13 14 0
-16 -9 -19 -18 -43 -22 -52 -3 -10 -10 -18 -15 -18 -5 0 -6 -4 -3 -10 3 -5 1
-10 -5 -10 -6 0 -8 -4 -5 -10 3 -5 1 -10 -5 -10 -6 0 -8 -4 -5 -10 3 -5 1 -10
-6 -10 -7 0 -10 -3 -6 -6 3 -4 -1 -13 -9 -21 -8 -8 -12 -19 -9 -24 4 -5 2 -9
-3 -9 -9 0 -84 -162 -98 -210 -4 -14 -10 -27 -13 -30 -8 -6 -41 -81 -45 -100
-1 -8 -7 -24 -13 -35 -6 -11 -13 -29 -14 -40 -2 -11 -7 -22 -11 -25 -4 -3 -10
-17 -12 -30 -2 -14 -5 -27 -6 -30 -2 -3 -2 -8 -1 -12 0 -5 -3 -8 -8 -8 -5 0
-13 -15 -17 -32 -10 -42 -9 -40 -18 -60 -4 -9 -9 -22 -10 -30 -2 -7 -6 -21
-10 -30 -4 -9 -9 -22 -10 -30 -2 -7 -8 -26 -15 -42 -6 -16 -13 -36 -15 -45 -2
-9 -8 -28 -14 -43 -6 -15 -13 -38 -15 -50 -2 -13 -9 -35 -15 -49 -12 -31 -26
-97 -21 -102 2 -2 -2 -11 -9 -20 -8 -9 -11 -21 -8 -26 4 -5 2 -12 -2 -15 -5
-3 -15 -32 -22 -65 -7 -34 -15 -59 -19 -57 -3 2 -6 -12 -6 -32 0 -21 -5 -53
-11 -72 -7 -19 -24 -100 -38 -180 -24 -132 -30 -172 -41 -280 -2 -19 -8 -66
-14 -105 -30 -216 -35 -681 -9 -885 5 -41 11 -88 12 -105 6 -61 55 -313 81
-415 127 -506 360 -965 687 -1357 38 -46 65 -83 61 -83 -4 0 15 -24 43 -53 28
-28 89 -91 134 -139 46 -49 87 -88 91 -88 4 0 42 -34 84 -75 43 -41 81 -75 86
-75 4 0 21 -12 36 -26 83 -76 149 -125 157 -117 3 3 6 1 6 -5 0 -12 91 -78
103 -74 4 1 7 -3 7 -8 0 -6 5 -10 11 -10 6 0 41 -19 77 -43 414 -268 921 -442
1477 -509 173 -20 772 -17 950 6 552 70 1047 194 1505 376 242 96 377 161 633
302 l107 60 -39 46 c-22 26 -212 218 -424 427 -830 819 -2402 2397 -2399 2408
2 7 0 9 -4 5 -13 -13 -130 100 -1174 1143 -836 835 -1483 1474 -1564 1544 -39
34 -41 34 -65 7z"/>
<path d="M15953 5792 c-380 -380 -694 -688 -698 -684 -5 4 -6 2 -2 -3 3 -6
-17 -31 -44 -55 -27 -25 -974 -968 -2104 -2096 l-2055 -2050 258 -128 c685
-341 1266 -519 1997 -612 178 -23 758 -26 930 -6 842 101 1528 433 2120 1027
595 595 925 1277 1027 2120 20 168 17 730 -6 915 -52 431 -130 775 -270 1195
-100 297 -180 490 -333 804 l-129 264 -691 -691z"/>
<path d="M5758 3343 c9 -21 19 -40 22 -43 3 -3 6 -10 7 -15 4 -22 116 -260
125 -266 5 -3 9 -9 8 -13 -3 -13 24 -76 33 -76 4 0 6 -4 2 -9 -3 -5 2 -16 10
-25 9 -8 15 -18 15 -21 -3 -13 33 -95 41 -95 5 0 8 -3 7 -7 -4 -13 45 -123 54
-123 4 0 7 -3 6 -8 -4 -10 34 -95 45 -103 5 -3 8 -10 7 -15 -2 -12 43 -108 53
-112 4 -2 5 -8 1 -13 -3 -5 0 -9 7 -9 7 0 10 -3 7 -6 -7 -7 92 -228 104 -232
4 -2 6 -8 2 -13 -3 -5 0 -9 7 -9 7 0 10 -3 6 -6 -9 -10 38 -98 96 -178 79
-109 208 -267 223 -273 8 -3 14 -10 14 -17 0 -6 30 -41 67 -79 158 -157 226
-222 233 -222 5 0 18 -13 30 -28 12 -15 24 -26 26 -24 2 2 25 -16 51 -40 26
-23 52 -43 58 -43 6 0 38 -19 70 -43 261 -188 609 -338 940 -405 159 -33 219
-41 402 -52 624 -40 1219 122 1698 464 94 67 256 201 330 273 102 98 305 314
305 324 0 5 8 17 18 28 58 63 177 251 227 361 32 69 68 143 81 166 13 22 21
44 17 47 -3 4 -1 7 6 7 7 0 10 4 7 9 -4 5 -3 11 1 13 10 4 55 100 53 112 -1 5
2 12 7 15 11 8 49 93 46 103 -2 5 1 8 5 8 7 0 54 100 57 120 1 3 13 29 28 58
15 28 24 52 20 52 -5 0 -3 4 2 8 18 13 42 47 27 38 -11 -6 -11 -4 -3 10 6 11
45 94 86 187 42 92 88 188 102 212 l25 45 -2971 0 -2971 0 18 -37z"/>
</g>
</svg>
